<?xml version="1.0" encoding="utf-8"?>
<!-- Generator: Adobe Illustrator 15.0.0, SVG Export Plug-In . SVG Version: 6.00 Build 0)  -->
<!DOCTYPE svg PUBLIC "-//W3C//DTD SVG 1.1//EN" "http://www.w3.org/Graphics/SVG/1.1/DTD/svg11.dtd">
<svg version="1.1" xmlns="http://www.w3.org/2000/svg" xmlns:xlink="http://www.w3.org/1999/xlink" x="0px" y="0px" width="56px"
	 height="50px" viewBox="0 0 56 50" enable-background="new 0 0 56 50" xml:space="preserve">
<g id="Calque_2">
</g>
<g id="Calque_1">
	<g>
		<rect x="28" width="28" height="50"/>
		<rect id="_x3C_Tranche_x3E__1_" x="28" fill="none" width="28" height="50"/>
		<path fill="#FFFFFF" d="M33.397,11.865l4.386-4.378c0,0,12.987,15.14,12.987,17.694c0,2.558-12.987,17.331-12.987,17.331
			l-4.386-4.379c0,0,10.291-11.786,10.291-12.952C43.688,24.019,33.397,11.865,33.397,11.865z"/>
	</g>
	<g>
		<rect width="28" height="50"/>
		<path fill="#FFFFFF" d="M22.931,11.756l-4.305-4.415c0,0-12.733,15.266-12.733,17.842c0,2.58,12.733,17.476,12.733,17.476
			l4.305-4.416c0,0-10.093-11.884-10.093-13.06C12.838,24.011,22.931,11.756,22.931,11.756z"/>
		<rect id="_x3C_Tranche_x3E_" fill="none" width="28" height="50"/>
	</g>
</g>
</svg>
