<?xml version="1.0" encoding="utf-8"?>
<!-- Generator: Adobe Illustrator 16.0.0, SVG Export Plug-In . SVG Version: 6.00 Build 0)  -->
<!DOCTYPE svg PUBLIC "-//W3C//DTD SVG 1.1//EN" "http://www.w3.org/Graphics/SVG/1.1/DTD/svg11.dtd">
<svg version="1.1" id="Calque_1" xmlns="http://www.w3.org/2000/svg" xmlns:xlink="http://www.w3.org/1999/xlink" x="0px" y="0px"
	 width="130px" height="27px" viewBox="0 0 130 27" enable-background="new 0 0 130 27" xml:space="preserve">
<g>
	<path fill="#575756" d="M15.074,23.115l-2.372,2.342h-9.42l-2.216-2.326v-8.812l2.218-2.153h9.417l2.374,2.153V23.115z
		 M9.938,23.123v-8.81H6.242v8.81H9.938z"/>
	<path fill="#575756" d="M54.022,25.457h-5.369c0.01-0.016,0.01-10.98,0-11.149H45.89c-0.006,0.139-0.006-2.143,0-2.141h8.132
		V25.457z M54.295,7.848h-5.564V5.747h5.564V7.848z"/>
	<path fill="#575756" d="M77.208,7.848H56.88V5.747h20.328V7.848z"/>
	<path fill="#575756" d="M128.93,7.848H87.912V5.747h41.019V7.848z"/>
	<path fill="#575756" d="M74.255,25.457H62.544l-2.257-2.334v-8.815l2.189-2.141h9.099l2.177,2.145h-8.289v8.809h8.793V25.457z"/>
	<path fill="#575756" d="M85.075,25.457h-5.362c0,0.021-0.011-11.15-0.009-11.146l-2.763-0.003c0.002,0.147-0.009-2.143,0-2.141
		h8.134V25.457z M85.346,7.848h-5.563V5.747h5.563V7.848z"/>
	<path fill="#575756" d="M128.934,25.457h-13.891l-2.335-2.332l0.001-4.25l2.415-2.379h4.899c0,0.006,0-2.189,0-2.184h-5.448v-2.145
		h9.029L125.471,14v9.123h3.463V25.457z M120.106,18.252h-1.955l-0.003,4.871h1.948L120.106,18.252z"/>
	<path fill="#575756" d="M92.788,14.323v11.134h5.295l0.002-8.295l2.987-1.967l-0.003,10.262h7.671v-2.34h-2.373v-10.95h-4.941
		l-3.424,2.028v-2.028h-8.016c0-0.001,0,2.178,0,2.156H92.788z"/>
	<polygon fill="#575756" points="40.132,5.747 40.132,3.255 44.879,3.255 44.879,1.543 36.591,1.543 34.723,3.372 34.723,5.747 
		26.825,5.747 26.825,3.255 31.572,3.255 31.572,1.543 23.284,1.543 21.417,3.372 21.417,5.747 1.081,5.747 1.081,7.809 
		21.572,7.809 21.572,25.451 26.745,25.451 26.747,7.809 34.88,7.809 34.88,25.449 40.054,25.449 40.054,7.809 46.162,7.809 
		46.162,5.747 	"/>
</g>
</svg>
